<?xml version="1.0" encoding="utf-8"?>
    <svg
        xmlns="http://www.w3.org/2000/svg"
        version="1.1"
        baseProfile="tiny"
        width=""
        height=""
        viewBox="0 0 1200 800">
        <g><g
            stroke="#000000"
            stroke-width=".98">
                <path fill="#d7e682" d="m618.98 58.12l21.84 20.24 32.53 13.05 28.92 13.73 38.32.68 23.41-1.28 0-10.55 30.46-.04 69.56-13.48 38.09-7.43 13.17 0-.09.34.99-.25-.36.68.75.78-.68.81.43.13.61-.02-.16.52.3.32.22-.17.36.08.07.28-.41.2-.54.08.18.39-.16.38.3.09-.18.32.25.2-.16.25.52.05.2.3.34-.07.32.26.27.56.16.41.04.34.41.17.2.28.34-.17-.14.34-.03.44.56.58.59.06-.2.45.25.71.18.54.54.25.54.43.23.88-.39.28.03.52-.09.62.31.06.5-.34.36.13.27.54.32-.65.29.41.34.04.43.13.57.24 0 .6.29.64.95.47.2.26 1.27-.28.7.07-.16.81.38.71 1.11.39.41.73.36 1.11-.23 1.33 1.4 1.03.46.13-.28.9.68 1.29-.77.25-.09 1.08.5.17.54 1.41-.72 1.5.99 1.2-.13 1.63 1.63.99 1.8.3 1.63-1.24 1.76-1.2.82-2.02 1.58 0 1.04-.09 2.08-1.75 2.21-1.55.95-1.93.04-.77 1.04-.56.64 0 1.13-.68.58-1.12.82-.94.58-1.12 1.36-.56 1.22-.17.95-.94-.05-1.07-.72-.65 1.04-1.16 1.76-.98 1.13-.13.72-1.29 1.13-.3.68-1.07 1.22-.48.95-.25.63-.86-.45-.73 1.54.3.77.34 1.76-1.26 2.48-2.28 1.49-1.98 1.4-1.2 1.99.22 1.27.21 1.76-.86.63.77.72.86.05-.68 1.13-1.59 1.17-.39 1.49-2.06 1.41-1.06 1.01-.04.3.54.56.06.2-.45.55.11.29.39.41-.52 1.6 1.4.52-.56.2 1.24-.22.2.65.28.25.56.14.51.95.62-.32 1.42.45.5.7-.26 0 .56-.22.41.81.62.29-.09-.2-.51.61.34.72-.41.66.82 1.9.19.82-.21 1.44-1.72.86-2.23.14-.64.77-.26.06-.65.98-.28.4-.64.82-.67.2-.62 1.22-.43.7.04.59-.43.34-.88.92-.58.23-1.01.88-1.01.61.69 1.56-.88.79-.5.81-.13.95-.81.75-.87 1.89.31 2.31-1.42.99-.18.43-1.11 1.29.17.2.41 1.31-1.17 1.11.33 1.04 1.25 1.49.9 1.76-1.08 1.27-.86.09 1.81 3.84-.52 3.57-3.31 6.24.99-2.71-1.76-2.63-.18-1.44-2.11-1.45-2.23-2.8.08.63-2.67-3.61-2.84-.27-1.64-3.44.35-.54-2.33-2.71.18-.09-.95-2.8.08-1.36-1.55-5.51.78-1.09-1.9-9.12-.6-1.72 2.15-3.89.18-.9-1.73-2.17.35-3.07-2.76-5.61-.35-4.15 1.04-4.52 0-1.04-.28-113.38 22.59-71 13.58-1.09-1.07-2.48-.22-.32-1.46-3.12.06-5.24-2.41-1.62-1.63-2.72.86-3.52-.17-6.78 1.37-4.25.69-3.07 1.89-2.8.26.27 1.72-2.53.95-1.94-.43-2.67-1.29-.77.25-.18-1.24-1.81.9-1.49-.26-1.22-1.29-2.17-.81-1.94 0-1.76-.09-.9.22-2.04.17-1.26-.56-1.4-1.33-1.9-.39-.86-1.72-1.13-1.03-5.38-.82-2.98-2.24-1.72 1.12-1.62-.51-1.45 1.72-4.88-1.21-1.63 1.38-2.35.86-3.07-1.89-2.26 1.46-2.62-1.21-1.63.26-3.52-1.8-1.72 1.2-2.53 0-2.8-.86-2.89 2.84-2.99-2.15-3.43-1.89-4.16.94-2.8.78-2.89-.86-7.43.44-5.42-1.89-5.43-1.2-7.41-.52-1.08 1.55-9.22-.52-6.69-1.72-4.48-1.98z" />
                <path fill="#e4eeab" d="m764 104.54l-23.41 1.28-51.16 20.41-20.24 13.68-8.68 28.67 10.12 24.51-13.01 20.39-52.06 27.12-34.7 25.69-8.68 39.09 8.68 54.99-1.45 40.02-36.15 87.43 7.23 27.63 26.03 56.28 17.35 18.24 17.35-7.81 14.46 15.62-2.89 51.82 27.48 47.62 10.12 34.55 21.69 36.92 8.67-5.08 6.6.72 3.53-3.89 7.32-1.28-.04-422.95 65.8 0 .04-231.67z" />
                <path fill="#f1f6d4" d="m201.08 24.62l9.03 21.87 31.82 52.26 53.5 60.21 13.01 24.54-23.13 24.47 23.13 29.85 23.14 13.53 85.32 67.4 10.12 34.86 30.36 18.71-17.35 20.01-5.78 39.89 26.03 130.31 31.81 36.48-30.37 24.65 13.02 64.5 18.7 49.12 1.18-1.35 3.52.24 1.54-1.28 1.63 1.2 1.44-1.52 3.89-1.11 2.44 1.83.54 1.83 3.53.8.54 3.35-.72 3.66 2.71 3.19 2.35-1.04 5.33-.55 2.71 4.45-.54 1.83 2.62 3.34-1.63 3.74-3.21.01-.64 2.66 2.49 2.42.81 4.09 3.39-.32-1.49 9.88 2.17 0 3.57-1.74 3.66.31 1.76-.59 3.36 5.73 6.14-1.75 7.14-.07 5.87 1.34 9.22 7.13 8.14 1.11 11.2-.48 9.4 0 12.66-3.48 17.89 1.9 5.42 4.9 6.33 2.06 8.49-4.9-.09-2.3-1.89-3.8 3.61-5.23 8.41 1.19 5.78-5.87 1.45-5.23 4.52-.17-21.69-36.92-10.12-34.55-27.48-47.62 2.89-51.82-14.46-15.62-17.35 7.81-17.35-18.24-26.03-56.28-7.23-27.63 36.15-87.43 1.45-40.02-8.68-54.99 8.68-39.09 34.7-25.69 52.06-27.12 13.01-20.39-10.12-24.51 8.68-28.67 20.24-13.68 51.16-20.41-38.32-.68-61.45-26.78-21.84-20.24-12.49-10.66-11.2-11.38-1.45-3.1-275.47-.18-4.51 2.25-5.79.68-8.49-.34-2.72-4.66-13.01-6.55-13.01-8.29 1.26-3.11-3.79-4.84-8.32-2.25-6.87 1.73-4.52-2.42-12.29 1.21-2.53 2.42-5.96 3.46-7.96 5.7-6.86 3.28-11.92 3.55z" />
                <path fill="#f8fae9" d="m493.44 737.28l-18.7-49.12-13.02-64.5 30.37-24.65-31.81-36.48-26.03-130.31 5.78-39.89 17.35-20.01-30.36-18.71-10.12-34.86-85.32-67.4-23.14-13.53-23.13-29.85 23.13-24.47-13.01-24.54-53.5-60.21-31.82-52.26-9.03-21.87-.36-.66-.54-2.63-1.31-.43-2.17 1.38-6.55.13-11.57-5.52-18.08 7.25-5.06-1.04 0 7.25 2.17 24.47 3.62 23.05 6.87 8.93 5.42 19.56 17.71 11.99 8.68 11.98 4.7 10.6 4.34 3.42 9.76 18.43 21.33 42.21 10.84 15.61 1.45 9.15 7.95 14.23 2.53 12.85 6.87 11.14 5.06 10.8 15.54 17.18 10.85 20.85.36 3.86 5.6 6.38 11.93 13.41 3.08 6.03 8.49 12.71 6.51 11.7.72 10.01 2.17 9-1.7 5.26-7.59 11.65 6.87 16.94-3.98 7.97 2.9 8.62 0 20.51-3.98 9.25 11.57 29.01-.36 5.92 11.93 14.78.36 6.89 5.25 12.72-4.7 14.72 2.53 10.45 2.71 4.57-1.09 3.26-2.89 9.94 5.06 6.02 0 5.04 3.26 5.36 2.35 5.2-1.27 4.38-2.89.49 2.71 2.76-1.08 9.4 7.23 2.91 4.88 6.8 2.53 9.7-1.45 4.21-3.25-2.59-1.09 2.42 4.34 11.3-.36 3.71 4.16-.65 1.8 2.26.37 7.57 1.26 8.37 1.99 8.99 6.14 7.87 9.04 13.46.54 5.77 9.95 12.3-.37 2.4 7.05 8.3 12.48 9.56 10.3 8.44 14.1 14.3 7.41 4.6 1.81-3.81 6.14-1.43 2.17-2.7 4.52-2.86 2.89 2.23 3.8-3.34-.91-3.65 3.26-2.23-4.52-3.82 1.62-3.5 1.81 1.11 1.99-.79-1.99-2.71 4.02-.36-2.03-3.06 3.16 1.11 1-3.03-.82-2.31.51-.58z" />
        </g></g>
    </svg>