<?xml version="1.0" encoding="utf-8"?>
    <svg
    xmlns="http://www.w3.org/2000/svg"
    version="1.1"
    baseProfile="tiny"
    width="100%" height=""
    viewBox="0 0 800 600">
    <g><g
    stroke-width="2">

    <path
        title="NORTHEAST, KAVANGO AND ZAMBEZI"
        id="tin-m1"
        class="tin-map-region-default"
        d="m397.51 25.86l-20.55 9.8 1.57 74.08.05 1.85 114.61 2.04 0-17.38 8.65-15.88 5.41-7.69 17.31-1.03 24.33.52 68.11-14.38 20.01-1.55 4.86 10.28 5.94 4.11 5.42 9.74 16.75-12.82 13.51-10.79 7.05-4.12 9.19 6.17 3.77-6.17 12.44-6.68 15.68 0-8.11-10.82-15.67-5.15-5.95 2.57-12.98-1.54-6.48-.52-134.08 25.74-5.72-.73-8.88-2.87-8.43.55-7.83 3.6-8.38-.77-10.82-3.86-9.19-3.85-9.73 2.31-8.92-1.8-5.68-.51-.76 2.28-5.18-2.8-6.49 1.54-5.68-1.02-14.05-2.06-3.74 1.25-11.94-2.8-9.85-7.51-.94-2.57-2.16-.65-1.36-3.09-2.43-1.68-.54-1.93-2.14-1.41z" />
    
    <path
        title="ETOSHA NATIONAL PARK AND OWAMBO"
        id="tin-m2"
        class="tin-map-region-default"
        d="m397.51 25.86l-201.29-.57.71 82.37 5.68 17.61 40.55 16.56 19.46 10.93 20.82 4.57 11.08-.25 12.43-13.73 19.74-8.65 11.35-1.53 10.27-5.86 6.49-8.16 5.27-9.19 18.46-.22-1.57-74.08 20.55-9.8z" />
    
    <path
        title="COASTAL STRIP"
        id="tin-m3"
        class="tin-map-region-default"
        d="m203.23 328.58l9.19.99 1.89-29.55 5.54-11.21 15.95-4.8-29.05-36.27-26.23-46.29-19.19-34.92-23.25-45.27-40.54-53.74-6.49-14.9-6.76-39.3-2.16.51-4.33 1.68-4.59 2.71-2.03 1.26-2.13-.77.07 4.29-.61 6.48-.13 6.96 1.75 7.85 2.17 12.22 2.16 6.42 5.41 6.29 0 2.19 1.48 2.56.41 2.82 3.38 5.64 12.97 9.74 6.22 8.69.54 3.58 5.95 6.65 6.48 10.2-1.62 2.04 10.95 20.12 10.54 18.04 5.95 8.12.27 8.61 4.6 8.35 2.16 7.84 10.27 16.91 11.35 13.85 2.98 9.3 9.19 13.05 9.19 9.03 2.16 5.76 7.84 11.5 1.89 9.24 2.16 11.71-3.1 4.67-2.91.5.47-5.11-.81.81-.13 2.31-1.02 1.18-.4 3.17 3.65 10.69 1.38 3.73-.41 3.72-.81 3.72-1.15-1.49-.07-3.1-1.01 1.68.68 3.04 1.69 4.3z" />
    
    <path
        title="KAOKOLAND AND KUNENE REGION"
        id="tin-m4"
        class="tin-map-region-default"
        d="m84.29 13.32l6.76 39.3 6.49 14.9 40.54 53.74 23.88.28 40.65 3.73-5.68-17.61-.71-82.37-5.91.1 0 .9-2.98.52-1.82.7-.34-.51-1.08.58-3.58-1.03-1.62 1.16-1.9-.58-1.89-2.9-9.66-5.29-9.95-6.96-2.97-5.17-8.38-1.55-8.11-.26-8.38 1.81-8.65 5.94-9.46 5.17-6.49 0-4.06-1.04-5.67.52-4.87-3.61-4.16-.47z" />
    
    <path
        title="DAMARALAND, BRANDBERG AND TWYFELFONTEIN"
        id="tin-m5"
        class="tin-map-region-default"
        d="m283.44 157.33l-20.82-4.57-19.46-10.93-40.55-16.56-40.65-3.73-23.88-.28 68.67 126.48 29.05 36.27 49.46-1.62-1.62-53.61-.2-71.45z" />
    
    <path
        title="WATERBERG, KHAUDUM AND NYAE NYAE"
        id="tin-m6"
        class="tin-map-region-default"
        d="m283.44 157.33l.2 71.45 240.39 1.42.53-158.55-17.31 1.03-5.41 7.69-8.65 15.88 0 17.38-114.61-2.04-.05-1.85-18.46.22-5.27 9.19-6.49 8.16-10.27 5.86-11.35 1.53-19.74 8.65-12.43 13.73-11.08.25z" />
    
    <path
        title="WINDHOEK, SURROUNDINGS AND CENTRAL EAST"
        id="tin-m7"
        class="tin-map-region-default"
        d="m283.64 228.78l1.62 53.61 6 21.98 19.46 15.9 32.44 41.54 10.81 53.02 120.83-6.11.34-156.47 48.9-.12-.01-21.93-240.39-1.42z" />
    
    <path
        title="SOSSUSVLEI AND NAMIB-NAUKLUFT NATIONAL PARK"
        id="tin-m8"
        class="tin-map-region-active"
        d="m353.97 414.83l-10.81-53.02-32.44-41.54-19.46-15.9-6-21.98-49.46 1.62-15.95 4.8-5.54 11.21-1.89 29.55-9.19-.99 2.04 4.34-.27 13.97-3.38 3.46 8.78 23.05-1.08 4.92 6.49 7.13 3.51 6.13-.27 5.64 4.6 6.13-4.33 12.47 1.62 7.32 3.25 3.66 69.01-4.47 60.77-7.5z" />
    
    <path
        title="DEEP SOUTH, COASTAL AND THE FISH RIVER CANYON"
        id="tin-m9"
        class="tin-map-region-default"
        d="m474.8 408.72l-120.83 6.11-60.77 7.5-69.01 4.47-2.86 3.43-.13 3.41.33 2.01-1.14.67.87 1.58 3.45 3.83-.47 3.29 2.84 3.76 1.01 4.38-.74 2.54-.88.34-.85-.64-.13.55 1.01 1.42.81.91-.71 2 .07 4.24 1.35 1.52 2.84.91 2.91 2.12 1.28 2.96 1.28 5.68 1.22.06-.44 2.09-.71 1.57-.13 1.66-.58-1.3-.27-.69-.17-1.33-1.08 1.06-.84-.7-.04.85-.54.45.58 3.89.88-.24-.07 1.51 2.57 5.13-.48 1.66 2.03.99.34-.51 1.45.66.34 1.27.27 1.47-.47 1.93.27 1.95 1.28 2.11-.47.78 1.08 2.65-.54 1.5 1.01 2.64.41 2.65 1.55 2.82 1.96 1.68.88 2.28 2.36 2.34 2.1 3.35-.49.23 3.62 4.02-.75 1.74.81 1.08-.06 1.07 1.14 1.5 2.23 2.39 3.92 5.2.27 1.67 2.44 4.54 9.46 7.03 14.32 13.09 7.98 7.12 3.04 1.75.42.18.21-1.68.6-.78.6 0 .64-.91 5.25-1.2 1.49-2.37 3.24-.83 1.35 1.3 2.3-3.44.27-1.78 2.03-1.91-3.65-3.45 1.22-1.78 2.29 1.54.68-1.66-1.35-1.19 2.16-.72-.81-2.26 2.16.95.68-1.19-.14-2.74 1.08-1.67 2.44 0 2.02.36 4.06-2.03 2.57 2.03.54 1.07 1.62 0 .54 2.74-.13 2.5 1.62 2.27 4.05-.6 2.03-.36 2.03 3.46.4 1.78 1.22 2.86-1.35 1.9-2.57.95.13 1.9 2.03 2.61.41 1.55 2.02 0-.81 5.33.68 1.78 6.08-1.01 1.69-.59 1.56 2.07.74 2.43 5.74-.71 10.55 1.36 6.48 4.74 7.03 1.42 3.79-1.66 9.19.24 12.97-2.37 10.49 1.94 4.59 3.55 5.95.71 4.6-4.02-2.44-5.21 2.98-2.61 6.48 0 3.52-3.79 3.51-7.12 8.65-.48 4.06 0 3.24-2.85 4.87-1.43.2-158.77z" />
    </g></g>
    </svg>